<svg width="149" height="48" viewBox="0 0 149 48" fill="none" xmlns="http://www.w3.org/2000/svg">
<path d="M62.1449 16.2784H65.0295L70.4073 30.9075H67.4814L66.1216 27.2605H61.0117L59.6724 30.9075H56.7466L62.1449 16.2784ZM65.6064 25.2619L63.5872 19.2248L61.4856 25.2619H65.6064ZM75.5596 31.1135C74.6393 31.1135 73.7602 30.9624 72.9223 30.6602C72.0844 30.358 71.3632 29.9116 70.7588 29.3209L71.7478 27.5284C72.3934 28.0503 73.0253 28.4349 73.6434 28.6822C74.2753 28.9295 74.8797 29.0531 75.4566 29.0531C75.9923 29.0531 76.4181 28.9569 76.7341 28.7646C77.0637 28.5723 77.2286 28.2839 77.2286 27.8992C77.2286 27.6382 77.1393 27.4391 76.9607 27.3017C76.7822 27.1506 76.5212 27.0201 76.1778 26.9102C75.8481 26.8003 75.4429 26.6767 74.9621 26.5393C74.1654 26.2784 73.4992 26.0242 72.9635 25.777C72.4278 25.5297 72.0226 25.2207 71.7478 24.8498C71.4868 24.4652 71.3563 23.9775 71.3563 23.3869C71.3563 22.6726 71.5349 22.0613 71.8921 21.5531C72.2629 21.0311 72.7712 20.6259 73.4168 20.3374C74.0761 20.049 74.8453 19.9047 75.7245 19.9047C76.4937 19.9047 77.2217 20.0284 77.9085 20.2756C78.5953 20.5091 79.2203 20.8938 79.7835 21.4295L78.6709 23.1808C78.1214 22.755 77.5995 22.446 77.105 22.2536C76.6105 22.0476 76.1091 21.9446 75.6008 21.9446C75.3124 21.9446 75.0377 21.9789 74.7767 22.0476C74.5294 22.1163 74.3234 22.233 74.1585 22.3979C74.0074 22.549 73.9319 22.7688 73.9319 23.0572C73.9319 23.3182 74.0006 23.5242 74.1379 23.6753C74.289 23.8127 74.5088 23.9363 74.7973 24.0462C75.0995 24.1561 75.4635 24.2797 75.8893 24.4171C76.7547 24.6644 77.4827 24.9185 78.0734 25.1795C78.6778 25.4405 79.1311 25.7633 79.4332 26.1479C79.7354 26.5187 79.8865 27.0339 79.8865 27.6932C79.8865 28.7646 79.4951 29.6025 78.7121 30.2069C77.9291 30.8113 76.8783 31.1135 75.5596 31.1135ZM85.7411 31.1135C84.8207 31.1135 83.9416 30.9624 83.1037 30.6602C82.2658 30.358 81.5447 29.9116 80.9403 29.3209L81.9293 27.5284C82.5749 28.0503 83.2067 28.4349 83.8249 28.6822C84.4567 28.9295 85.0611 29.0531 85.6381 29.0531C86.1738 29.0531 86.5996 28.9569 86.9155 28.7646C87.2452 28.5723 87.41 28.2839 87.41 27.8992C87.41 27.6382 87.3207 27.4391 87.1422 27.3017C86.9636 27.1506 86.7026 27.0201 86.3592 26.9102C86.0295 26.8003 85.6243 26.6767 85.1436 26.5393C84.3468 26.2784 83.6806 26.0242 83.1449 25.777C82.6092 25.5297 82.204 25.2207 81.9293 24.8498C81.6683 24.4652 81.5378 23.9775 81.5378 23.3869C81.5378 22.6726 81.7164 22.0613 82.0735 21.5531C82.4444 21.0311 82.9526 20.6259 83.5982 20.3374C84.2576 20.049 85.0268 19.9047 85.9059 19.9047C86.6751 19.9047 87.4032 20.0284 88.09 20.2756C88.7768 20.5091 89.4018 20.8938 89.965 21.4295L88.8523 23.1808C88.3029 22.755 87.7809 22.446 87.2864 22.2536C86.7919 22.0476 86.2905 21.9446 85.7823 21.9446C85.4938 21.9446 85.2191 21.9789 84.9581 22.0476C84.7109 22.1163 84.5048 22.233 84.34 22.3979C84.1889 22.549 84.1133 22.7688 84.1133 23.0572C84.1133 23.3182 84.182 23.5242 84.3194 23.6753C84.4705 23.8127 84.6903 23.9363 84.9787 24.0462C85.2809 24.1561 85.6449 24.2797 86.0707 24.4171C86.9361 24.6644 87.6641 24.9185 88.2548 25.1795C88.8592 25.4405 89.3125 25.7633 89.6147 26.1479C89.9169 26.5187 90.068 27.0339 90.068 27.6932C90.068 28.7646 89.6765 29.6025 88.8935 30.2069C88.1106 30.8113 87.0598 31.1135 85.7411 31.1135ZM91.9459 30.9075V20.1108H94.7069V30.9075H91.9459ZM91.9459 18.6067V15.8663H94.7069V18.6067H91.9459ZM101.174 31.1135C100.254 31.1135 99.3748 30.9624 98.5369 30.6602C97.6989 30.358 96.9778 29.9116 96.3734 29.3209L97.3624 27.5284C98.008 28.0503 98.6399 28.4349 99.258 28.6822C99.8899 28.9295 100.494 29.0531 101.071 29.0531C101.607 29.0531 102.033 28.9569 102.349 28.7646C102.678 28.5723 102.843 28.2839 102.843 27.8992C102.843 27.6382 102.754 27.4391 102.575 27.3017C102.397 27.1506 102.136 27.0201 101.792 26.9102C101.463 26.8003 101.057 26.6767 100.577 26.5393C99.78 26.2784 99.1138 26.0242 98.5781 25.777C98.0424 25.5297 97.6371 25.2207 97.3624 24.8498C97.1014 24.4652 96.9709 23.9775 96.9709 23.3869C96.9709 22.6726 97.1495 22.0613 97.5066 21.5531C97.8775 21.0311 98.3858 20.6259 99.0314 20.3374C99.6907 20.049 100.46 19.9047 101.339 19.9047C102.108 19.9047 102.836 20.0284 103.523 20.2756C104.21 20.5091 104.835 20.8938 105.398 21.4295L104.285 23.1808C103.736 22.755 103.214 22.446 102.72 22.2536C102.225 22.0476 101.724 21.9446 101.215 21.9446C100.927 21.9446 100.652 21.9789 100.391 22.0476C100.144 22.1163 99.938 22.233 99.7731 22.3979C99.622 22.549 99.5465 22.7688 99.5465 23.0572C99.5465 23.3182 99.6151 23.5242 99.7525 23.6753C99.9036 23.8127 100.123 23.9363 100.412 24.0462C100.714 24.1561 101.078 24.2797 101.504 24.4171C102.369 24.6644 103.097 24.9185 103.688 25.1795C104.292 25.4405 104.746 25.7633 105.048 26.1479C105.35 26.5187 105.501 27.0339 105.501 27.6932C105.501 28.7646 105.11 29.6025 104.327 30.2069C103.544 30.8113 102.493 31.1135 101.174 31.1135ZM113.788 30.3512C113.555 30.4473 113.273 30.5572 112.944 30.6808C112.614 30.8044 112.257 30.9006 111.872 30.9693C111.501 31.0517 111.124 31.0929 110.739 31.0929C110.231 31.0929 109.764 31.0036 109.338 30.8251C108.912 30.6465 108.569 30.3649 108.308 29.9803C108.06 29.5819 107.937 29.0668 107.937 28.4349V22.233H106.515V20.1108H107.937V16.6081H110.698V20.1108H112.964V22.233H110.698V27.5078C110.712 27.8786 110.815 28.1465 111.007 28.3113C111.199 28.4762 111.44 28.5586 111.728 28.5586C112.016 28.5586 112.298 28.5105 112.573 28.4143C112.847 28.3182 113.067 28.2358 113.232 28.1671L113.788 30.3512ZM114.485 27.7138C114.485 27.0132 114.677 26.402 115.062 25.88C115.46 25.3443 116.009 24.9322 116.71 24.6437C117.41 24.3553 118.214 24.2111 119.121 24.2111C119.574 24.2111 120.034 24.2454 120.501 24.3141C120.968 24.3828 121.373 24.4927 121.717 24.6437V24.0668C121.717 23.38 121.511 22.8512 121.099 22.4803C120.7 22.1094 120.103 21.924 119.306 21.924C118.715 21.924 118.152 22.027 117.616 22.233C117.081 22.4391 116.518 22.7413 115.927 23.1396L115.041 21.3264C115.755 20.8594 116.483 20.5091 117.225 20.2756C117.98 20.0421 118.77 19.9254 119.594 19.9254C121.133 19.9254 122.328 20.31 123.18 21.0792C124.045 21.8484 124.478 22.9473 124.478 24.3759V27.8168C124.478 28.1053 124.526 28.3113 124.622 28.4349C124.732 28.5586 124.904 28.6341 125.137 28.6616V30.9075C124.89 30.9487 124.663 30.983 124.457 31.0105C124.265 31.038 124.1 31.0517 123.963 31.0517C123.413 31.0517 122.994 30.9281 122.706 30.6808C122.431 30.4336 122.259 30.1314 122.191 29.7742L122.129 29.2179C121.662 29.8223 121.078 30.2893 120.377 30.619C119.677 30.9487 118.963 31.1135 118.235 31.1135C117.52 31.1135 116.875 30.9693 116.298 30.6808C115.735 30.3786 115.288 29.9734 114.959 29.4652C114.643 28.9432 114.485 28.3594 114.485 27.7138ZM121.202 28.2701C121.353 28.1053 121.476 27.9404 121.573 27.7756C121.669 27.6108 121.717 27.4597 121.717 27.3223V26.2303C121.387 26.0929 121.03 25.9899 120.645 25.9212C120.261 25.8388 119.897 25.7976 119.553 25.7976C118.839 25.7976 118.248 25.9556 117.781 26.2715C117.328 26.5737 117.101 26.9789 117.101 27.4871C117.101 27.7619 117.177 28.0229 117.328 28.2701C117.479 28.5174 117.699 28.7165 117.987 28.8676C118.276 29.0187 118.619 29.0943 119.018 29.0943C119.43 29.0943 119.835 29.0187 120.233 28.8676C120.632 28.7028 120.954 28.5036 121.202 28.2701ZM137.092 30.9075H134.331V24.8498C134.331 23.9844 134.18 23.3525 133.878 22.9542C133.576 22.5558 133.157 22.3567 132.621 22.3567C132.25 22.3567 131.872 22.4528 131.488 22.6451C131.117 22.8374 130.78 23.1053 130.478 23.4487C130.176 23.7784 129.956 24.163 129.819 24.6025V30.9075H127.058V20.1108H129.551V22.1094C129.826 21.6424 130.176 21.2509 130.602 20.935C131.028 20.6053 131.515 20.358 132.065 20.1932C132.628 20.0146 133.218 19.9254 133.837 19.9254C134.51 19.9254 135.059 20.049 135.485 20.2962C135.925 20.5297 136.254 20.8525 136.474 21.2646C136.707 21.663 136.865 22.1163 136.948 22.6245C137.044 23.1328 137.092 23.6479 137.092 24.1698V30.9075ZM143.469 31.1135C142.549 31.1135 141.67 30.9624 140.832 30.6602C139.994 30.358 139.273 29.9116 138.669 29.3209L139.658 27.5284C140.303 28.0503 140.935 28.4349 141.553 28.6822C142.185 28.9295 142.79 29.0531 143.366 29.0531C143.902 29.0531 144.328 28.9569 144.644 28.7646C144.974 28.5723 145.138 28.2839 145.138 27.8992C145.138 27.6382 145.049 27.4391 144.871 27.3017C144.692 27.1506 144.431 27.0201 144.088 26.9102C143.758 26.8003 143.353 26.6767 142.872 26.5393C142.075 26.2784 141.409 26.0242 140.873 25.777C140.338 25.5297 139.932 25.2207 139.658 24.8498C139.397 24.4652 139.266 23.9775 139.266 23.3869C139.266 22.6726 139.445 22.0613 139.802 21.5531C140.173 21.0311 140.681 20.6259 141.327 20.3374C141.986 20.049 142.755 19.9047 143.634 19.9047C144.404 19.9047 145.132 20.0284 145.818 20.2756C146.505 20.5091 147.13 20.8938 147.693 21.4295L146.581 23.1808C146.031 22.755 145.509 22.446 145.015 22.2536C144.52 22.0476 144.019 21.9446 143.511 21.9446C143.222 21.9446 142.947 21.9789 142.686 22.0476C142.439 22.1163 142.233 22.233 142.068 22.3979C141.917 22.549 141.842 22.7688 141.842 23.0572C141.842 23.3182 141.91 23.5242 142.048 23.6753C142.199 23.8127 142.419 23.9363 142.707 24.0462C143.009 24.1561 143.373 24.2797 143.799 24.4171C144.665 24.6644 145.393 24.9185 145.983 25.1795C146.588 25.4405 147.041 25.7633 147.343 26.1479C147.645 26.5187 147.796 27.0339 147.796 27.6932C147.796 28.7646 147.405 29.6025 146.622 30.2069C145.839 30.8113 144.788 31.1135 143.469 31.1135Z" fill="white"/>
<path d="M24 42C23.4333 42 22.9587 41.808 22.576 41.424C22.192 41.0413 22 40.5667 22 40C22 39.4333 22.192 38.9587 22.576 38.576C22.9587 38.192 23.4333 38 24 38H38V23.8C38 21.8667 37.6333 20.05 36.9 18.35C36.1667 16.65 35.1667 15.1667 33.9 13.9C32.6333 12.6333 31.15 11.6333 29.45 10.9C27.75 10.1667 25.9333 9.8 24 9.8C22.0667 9.8 20.25 10.1667 18.55 10.9C16.85 11.6333 15.3667 12.6333 14.1 13.9C12.8333 15.1667 11.8333 16.65 11.1 18.35C10.3667 20.05 10 21.8667 10 23.8V34C10 34.5667 9.80867 35.0413 9.426 35.424C9.042 35.808 8.56667 36 8 36C6.9 36 5.95867 35.6087 5.176 34.826C4.392 34.042 4 33.1 4 32V28C4 27.2333 4.18333 26.558 4.55 25.974C4.91667 25.3913 5.4 24.9167 6 24.55L6.15 21.9C6.45 19.4667 7.142 17.2667 8.226 15.3C9.30867 13.3333 10.6587 11.6667 12.276 10.3C13.892 8.93333 15.7087 7.87467 17.726 7.124C19.742 6.37467 21.8333 6 24 6C26.2 6 28.3087 6.37467 30.326 7.124C32.342 7.87467 34.15 8.94133 35.75 10.324C37.35 11.708 38.692 13.3747 39.776 15.324C40.8587 17.2747 41.55 19.45 41.85 21.85L42 24.45C42.6 24.75 43.0833 25.1913 43.45 25.774C43.8167 26.358 44 27 44 27.7V32.3C44 33.0333 43.8167 33.6833 43.45 34.25C43.0833 34.8167 42.6 35.25 42 35.55V38C42 39.1 41.6087 40.042 40.826 40.826C40.042 41.6087 39.1 42 38 42H24ZM18 28C17.4333 28 16.9587 27.808 16.576 27.424C16.192 27.0413 16 26.5667 16 26C16 25.4333 16.192 24.958 16.576 24.574C16.9587 24.1913 17.4333 24 18 24C18.5667 24 19.042 24.1913 19.426 24.574C19.8087 24.958 20 25.4333 20 26C20 26.5667 19.8087 27.0413 19.426 27.424C19.042 27.808 18.5667 28 18 28ZM30 28C29.4333 28 28.9587 27.808 28.576 27.424C28.192 27.0413 28 26.5667 28 26C28 25.4333 28.192 24.958 28.576 24.574C28.9587 24.1913 29.4333 24 30 24C30.5667 24 31.042 24.1913 31.426 24.574C31.8087 24.958 32 25.4333 32 26C32 26.5667 31.8087 27.0413 31.426 27.424C31.042 27.808 30.5667 28 30 28ZM12.05 24.9C11.9167 22.9333 12.192 21.15 12.876 19.55C13.5587 17.95 14.4747 16.5913 15.624 15.474C16.7747 14.358 18.1 13.5 19.6 12.9C21.1 12.3 22.6 12 24.1 12C27.1333 12 29.7587 12.9587 31.976 14.876C34.192 16.792 35.5333 19.1833 36 22.05C32.8667 22.0167 30.0333 21.1747 27.5 19.524C24.9667 17.8747 23.05 15.7333 21.75 13.1C21.2167 15.8 20.092 18.1913 18.376 20.274C16.6587 22.358 14.55 23.9 12.05 24.9Z" fill="white"/>
</svg>
