<svg width="132" height="51" viewBox="0 0 132 51" fill="none" xmlns="http://www.w3.org/2000/svg">
<ellipse cx="23.38" cy="23.6712" rx="21.38" ry="21.6712" stroke="white" stroke-width="2.5"/>
<ellipse cx="23.3798" cy="23.6711" rx="12.7763" ry="20.7655" stroke="white" stroke-width="2.5"/>
<ellipse cx="23.3796" cy="9.66575" rx="14.0701" ry="6.76011" stroke="white" stroke-width="2.5"/>
<path d="M2 23.7358H44.566" stroke="white" stroke-width="2.5"/>
<path d="M23.2822 45.0188L23.2822 2.45277" stroke="white" stroke-width="2.5"/>
<ellipse cx="23.3796" cy="38.1294" rx="14.0701" ry="6.30728" stroke="white" stroke-width="2.5"/>
<path d="M36.6425 46.3774L39.974 44.5014L43.0468 50L45.6667 48.3504L42.6263 42.9165L46.0225 41.1375L34.7988 31.8221L36.6425 46.3774Z" fill="white" stroke="#FF3AA1" stroke-width="1.2938" stroke-linejoin="round"/>
<path d="M61.0768 17.1983H64.2222L66.2126 22.973L68.2276 17.1983H71.3484L68.3504 25.1354L70.562 30.6889L75.5012 17.1491H79.1872L72.2084 34.5961H69.2842L66.2126 27.2733L63.1655 34.5961H60.2413L53.2871 17.1491H56.9239L61.8877 30.6889L64.0501 25.1354L61.0768 17.1983ZM86.9458 17.1983H90.0912L92.0816 22.973L94.0966 17.1983H97.2174L94.2194 25.1354L96.431 30.6889L101.37 17.1491H105.056L98.0774 34.5961H95.1532L92.0816 27.2733L89.0345 34.5961H86.1103L79.1561 17.1491H82.7929L87.7567 30.6889L89.9191 25.1354L86.9458 17.1983ZM112.815 17.1983H115.96L117.951 22.973L119.966 17.1983H123.086L120.088 25.1354L122.3 30.6889L127.239 17.1491H130.925L123.946 34.5961H121.022L117.951 27.2733L114.904 34.5961H111.979L105.025 17.1491H108.662L113.626 30.6889L115.788 25.1354L112.815 17.1983Z" fill="white"/>
</svg>
