<svg width="20" height="14" viewBox="0 0 20 14" fill="none" xmlns="http://www.w3.org/2000/svg">
<path d="M2.21046 0H17.7895C19.2593 0 20 0.688333 20 2.08833V11.9117C20 13.3 19.2593 14 17.7895 14H2.21046C0.740741 14 0 13.3 0 11.9117V2.08833C0 0.688333 0.740741 0 2.21046 0ZM9.99412 10.0333L17.9189 3.58167C18.2011 3.34833 18.4245 2.81167 18.0717 2.33333C17.7307 1.855 17.1076 1.84333 16.6961 2.135L9.99412 6.63833L3.30394 2.135C2.89242 1.84333 2.26925 1.855 1.92828 2.33333C1.57554 2.81167 1.79894 3.34833 2.08113 3.58167L9.99412 10.0333Z" fill="#06080C"/>
</svg>
