<svg width="91" height="48" viewBox="0 0 91 48" fill="none" xmlns="http://www.w3.org/2000/svg">
<g clip-path="url(#clip0_68_1776)">
<path d="M22.75 17.2671L21.1916 26.6858H24.9315C27.7362 26.3718 30.2294 25.43 30.5408 20.0925C30.5408 18.2089 28.9828 17.2671 26.8013 17.2671H22.75Z" fill="white"/>
<path d="M64.5101 17.2671L62.9518 26.6858H66.692C69.4967 26.3718 71.9899 25.43 72.3013 20.0925C72.3013 18.2089 70.7433 17.2671 68.5618 17.2671H64.5101Z" fill="white"/>
<path fill-rule="evenodd" clip-rule="evenodd" d="M91 23.8601C91 37.0376 70.629 47.7201 45.5 47.7201C20.371 47.7201 0 37.0376 0 23.8601C0 10.6825 20.371 0 45.5 0C70.629 0 91 10.6825 91 23.8601ZM17.7639 12.5578L12.7773 37.9877H18.6987L19.9454 31.3948H25.5543C30.8526 31.7089 36.7736 27.3136 36.7736 19.7788C36.7736 15.3832 34.2804 12.8718 29.2942 12.5578H17.7639ZM40.6013 5.96521L35.6151 31.3948H41.5365L44.3412 17.2671H49.016C51.1971 17.2671 51.1971 18.2089 50.8857 19.7788L48.7042 31.3948H54.937L57.1185 18.523C57.7417 15.3832 55.8719 12.8718 50.8854 12.5578H45.2761L46.5227 5.96521H40.6013ZM59.524 12.5578L54.5378 37.9877H60.4589L61.7055 31.3948H67.3151C72.613 31.7089 78.5344 27.3136 78.5344 19.7788C78.5344 15.3832 76.0412 12.8718 71.0547 12.5578H59.524Z" fill="white"/>
</g>
<defs>
<clipPath id="clip0_68_1776">
<rect width="91" height="48" fill="white"/>
</clipPath>
</defs>
</svg>
