<svg width="168" height="48" viewBox="0 0 168 48" fill="none" xmlns="http://www.w3.org/2000/svg">
<g clip-path="url(#clip0_66_1592)">
<path d="M35.5807 8.72732C35.4128 8.72732 31.8883 8.39166 31.8883 8.39166C31.8883 8.39166 29.3709 5.87418 29.0352 5.70635C28.8674 5.53851 28.8674 5.53851 28.6995 5.53851L26.6855 46.8252L41.1191 43.6364C41.1191 43.6364 36.0841 9.39865 36.0841 9.06299C36.0841 8.89516 35.7485 8.72732 35.5807 8.72732Z" fill="white"/>
<path fill-rule="evenodd" clip-rule="evenodd" d="M19.5641 1.88232C19.3665 1.76828 19.2108 1.67834 18.965 1.67834C14.6014 1.67834 12.2517 7.38463 11.0769 10.7413L14.7692 9.73429C15.7762 5.03498 17.7902 2.85317 19.8042 2.01401C19.7143 1.96903 19.6364 1.92406 19.5641 1.88232ZM21.4825 7.38463C21.4825 5.53848 21.1469 4.36366 20.8112 3.35666C19.3007 4.02799 17.6224 5.53848 16.6154 9.06296L21.4825 7.7203V7.38463ZM22.993 7.04897L25.1748 6.37764C24.6713 4.69932 23.6643 3.18883 22.4895 2.85317C22.8252 3.86016 22.993 5.03498 22.993 6.54547V7.04897ZM35.7482 8.72729C35.9161 8.72729 36.0839 8.89512 36.0839 9.06296C36.0839 9.39862 41.1189 43.6364 41.1189 43.6364L26.6853 46.8252L0 41.7902C0 41.7902 3.35664 15.2727 3.52447 14.4336C3.52752 14.4123 3.53051 14.3913 3.53345 14.3707C3.69275 13.2526 3.71665 13.0848 5.03496 12.7553C5.4208 12.6267 5.79568 12.498 6.16242 12.3722C7.23138 12.0055 8.23108 11.6625 9.23077 11.4126C10.2378 7.55247 13.0909 1.91629e-05 19.1329 0.167851C19.972 0.167851 20.979 0.503516 21.6503 1.51051H21.8182C24.3357 1.51051 25.8461 3.69233 26.6853 6.04198C27.5245 5.70631 28.028 5.53848 28.028 5.53848C28.0615 5.53848 28.1085 5.53177 28.1649 5.52371C28.3905 5.49149 28.7664 5.43778 29.035 5.70631C29.3706 5.87415 31.8881 8.39163 31.8881 8.39163C31.8881 8.39163 35.4126 8.72729 35.7482 8.72729ZM19.9712 22.1539L21.8174 16.7832C21.8174 16.7832 20.6426 15.9441 17.7894 16.1119C11.5796 16.1119 8.3908 20.3077 8.3908 24.6714C8.3908 27.5896 10.0276 28.9238 11.465 30.0955C12.5904 31.0128 13.5936 31.8306 13.5936 33.2308C13.5936 34.07 13.0901 35.0769 11.7474 35.0769C9.73346 35.0769 7.38381 33.063 7.38381 33.063L6.20898 37.0909C6.20898 37.0909 8.55863 39.9441 13.0901 39.9441C16.9502 39.9441 19.8034 37.0909 19.8034 32.5595C19.8034 29.0836 17.4371 27.3513 15.5872 25.9972C14.4001 25.1282 13.4258 24.4149 13.4258 23.4965C13.4258 22.993 13.5936 21.3147 16.4467 21.3147C18.4607 21.3147 19.9712 22.1539 19.9712 22.1539Z" fill="white"/>
<path d="M58.0698 26.6853C56.5593 25.8461 55.888 25.1748 55.888 24.3356C55.888 23.1608 56.895 22.4895 58.5733 22.4895C60.4194 22.4895 62.0978 23.3286 62.0978 23.3286L63.4404 19.3006C63.4404 19.3006 62.2656 18.2936 58.7411 18.2936C53.7062 18.2936 50.3495 21.1468 50.3495 25.1748C50.3495 27.5244 52.0278 29.2027 54.0418 30.3776C55.7201 31.3846 56.3915 32.0559 56.3915 33.0629C56.3915 34.0699 55.5523 35.0769 53.874 35.0769C51.5243 35.0769 49.1747 33.902 49.1747 33.902L47.832 37.93C47.832 37.93 49.846 39.2727 53.3705 39.2727C58.4055 39.2727 62.0978 36.7552 62.0978 32.2237C62.0978 29.7062 60.2516 27.8601 58.0698 26.6853ZM78.3775 18.1258C75.86 18.1258 73.846 19.3006 72.3355 21.1468L74.5173 9.73421H68.8111L63.2726 38.7692H68.9789L70.825 28.8671C71.4964 25.1748 73.5104 22.8251 75.3565 22.8251C76.6992 22.8251 77.2027 23.6643 77.2027 25.0069C77.2027 25.8461 77.2027 26.6853 77.0348 27.5244L74.853 38.937H80.5593L82.7411 27.1888C82.909 26.0139 83.0768 24.5034 83.0768 23.4964C83.0768 20.1398 81.3985 18.1258 78.3775 18.1258ZM92.9789 34.7412C90.9649 34.7412 90.2936 33.0629 90.2936 31.0489C90.2936 27.8601 91.9719 22.4895 94.9929 22.4895C97.0068 22.4895 97.6782 24.1678 97.6782 25.8461C97.6782 29.5384 95.9999 34.7412 92.9789 34.7412ZM95.832 18.1258C88.9509 18.1258 84.4194 24.3356 84.4194 31.2167C84.4194 35.5804 87.1048 39.1048 92.3076 39.1048C99.0208 39.1048 103.552 33.0629 103.552 26.0139C103.552 21.986 101.203 18.1258 95.832 18.1258ZM112.615 34.909C111.105 34.909 110.266 34.0699 110.266 34.0699L111.273 28.6992C111.944 25.1748 113.79 22.8251 115.804 22.8251C117.482 22.8251 118.154 24.5034 118.154 26.0139C117.986 29.7062 115.804 34.909 112.615 34.909ZM118.154 18.1258C114.294 18.1258 112.112 21.4825 112.112 21.4825L112.447 18.4615H107.412C107.245 20.4755 106.741 23.6643 106.238 26.0139L102.21 46.8251H107.916L109.426 38.4335H109.594C109.594 38.4335 110.769 39.1048 112.951 39.1048C119.664 39.1048 124.028 32.2237 124.028 25.3426C124.028 21.6503 122.35 18.1258 118.154 18.1258ZM132.084 10.0699C130.238 10.0699 128.895 11.5804 128.895 13.4265C128.895 15.1048 129.902 16.2797 131.58 16.2797C133.426 16.2797 134.937 15.1048 134.937 12.923C134.937 11.2447 133.762 10.0699 132.084 10.0699ZM124.196 38.7692H129.902L133.762 18.6293H128.056L124.196 38.7692ZM148.196 18.6293H144.168L144.336 17.6223C144.671 15.6083 145.846 13.93 147.692 13.93C148.699 13.93 149.538 14.2657 149.538 14.2657L150.713 9.73421C150.713 9.73421 149.706 9.23071 147.692 9.23071C145.678 9.23071 143.664 9.73421 142.154 11.0769C140.14 12.7552 139.301 15.1048 138.797 17.4545L138.629 18.4615H135.944L135.105 22.8251H137.79L134.769 38.7692H140.475L143.496 22.8251H147.356L148.196 18.6293ZM161.79 18.6293C161.79 18.6293 158.266 27.5244 156.587 32.3916C156.419 30.8811 155.245 18.6293 155.245 18.6293H149.203L152.559 37.0909C152.559 37.4265 152.559 37.7622 152.391 38.0978C151.72 39.4405 150.545 40.6153 149.37 41.4545C148.363 42.2937 147.021 42.7971 146.182 43.1328L147.692 47.9999C148.867 47.8321 151.217 46.8251 153.231 44.979C155.748 42.6293 158.266 38.7692 160.615 33.7342L167.496 18.7971L161.79 18.6293Z" fill="white"/>
</g>
<defs>
<clipPath id="clip0_66_1592">
<rect width="167.832" height="48" fill="white"/>
</clipPath>
</defs>
</svg>
