<svg width="210" height="48" viewBox="0 0 210 48" fill="none" xmlns="http://www.w3.org/2000/svg">
<g clip-path="url(#clip0_66_1716)">
<path d="M121.796 18.894H113.53V19.7772C116.115 19.7772 116.531 20.3355 116.531 23.6387V29.5938C116.531 32.8968 116.115 33.502 113.53 33.502C111.544 33.2228 110.204 32.1525 108.357 30.1058L106.233 27.7796C109.096 27.2674 110.62 25.4536 110.62 23.406C110.62 20.8475 108.45 18.8938 104.386 18.8938H96.2579V19.777C98.8434 19.777 99.2594 20.3353 99.2594 23.6385V29.5934C99.2594 32.8966 98.8436 33.5018 96.2579 33.5018V34.3854H105.448V33.5018C102.862 33.5018 102.446 32.897 102.446 29.5934V27.9194H103.231L108.357 34.385H121.796C128.399 34.385 131.263 30.8496 131.263 26.6156C131.263 22.3825 128.4 18.894 121.796 18.894ZM102.447 26.476V20.2894H104.34C106.418 20.2894 107.342 21.7318 107.342 23.4062C107.342 25.0345 106.418 26.4764 104.34 26.4764H102.447V26.476ZM121.935 32.9433H121.611C119.949 32.9433 119.718 32.5249 119.718 30.3848V20.2894C119.718 20.2894 121.75 20.2894 121.935 20.2894C126.738 20.2894 127.615 23.8248 127.615 26.5699C127.615 29.4074 126.738 32.9433 121.935 32.9433ZM70.5359 28.1984L73.7224 18.7072C74.6464 15.9623 74.2308 15.172 71.2753 15.172V14.2414H79.9573V15.172C77.048 15.172 76.3554 15.8697 75.2008 19.2659L69.9359 35.1764H69.3359L64.6248 20.6148L59.8225 35.1764H59.2221L54.096 19.2659C52.9876 15.8697 52.2488 15.172 49.5701 15.172V14.2414H59.8225V15.172C57.0975 15.172 56.3581 15.8231 57.3285 18.7072L60.4225 28.1984L65.0866 14.2412H65.9644L70.5359 28.1984ZM86.2369 34.9898C81.1572 34.9898 77.0009 31.2217 77.0009 26.6156C77.0009 22.0563 81.1577 18.2881 86.2369 18.2881C91.3166 18.2881 95.4727 22.0563 95.4727 26.6156C95.4729 31.2219 91.3168 34.9898 86.2369 34.9898ZM86.2369 19.7313C81.9888 19.7313 80.5102 23.5919 80.5102 26.6162C80.5102 29.6873 81.9886 33.502 86.2369 33.502C90.5323 33.502 92.0098 29.6873 92.0098 26.6162C92.01 23.5919 90.5321 19.7313 86.2369 19.7313ZM142.669 33.4553V34.3852H132.094V33.4553C135.188 33.4553 135.743 32.6645 135.743 28.0116V20.5684C135.743 15.9154 135.188 15.1716 132.094 15.1716V14.241H141.653C146.41 14.241 149.043 16.7068 149.043 20.0102C149.043 23.2206 146.41 25.7324 141.653 25.7324H139.021V28.011C139.021 32.6643 139.575 33.4553 142.669 33.4553ZM141.653 15.9154H139.021V24.0108H141.653C144.24 24.0108 145.44 22.1965 145.44 20.0102C145.44 17.777 144.24 15.9154 141.653 15.9154ZM180.768 30.0127L180.537 30.8498C180.122 32.385 179.614 32.9433 176.334 32.9433H175.688C173.287 32.9433 172.871 32.3848 172.871 29.0823V26.9427C176.473 26.9427 176.751 27.2678 176.751 29.6873H177.628V22.7548H176.751C176.751 25.1741 176.474 25.4995 172.871 25.4995V20.2894H175.41C178.69 20.2894 179.198 20.8477 179.614 22.3829L179.845 23.2668H180.584L180.261 18.894H166.683V19.7772C169.269 19.7772 169.685 20.3355 169.685 23.6387V29.5938C169.685 32.6152 169.332 33.3768 167.293 33.4855C165.355 33.187 164.024 32.1225 162.204 30.1058L160.08 27.7796C162.943 27.2674 164.467 25.4536 164.467 23.406C164.467 20.8475 162.297 18.8938 158.233 18.8938H150.105V19.777C152.691 19.777 153.107 20.3353 153.107 23.6385V29.5936C153.107 32.8966 152.691 33.5018 150.105 33.5018V34.3854H159.296V33.5018C156.71 33.5018 156.294 32.897 156.294 29.5936V27.9194H157.079L162.205 34.385H181.185L181.462 30.0127H180.768ZM156.293 26.476V20.2894H158.186C160.264 20.2894 161.189 21.7318 161.189 23.4062C161.189 25.0345 160.265 26.4764 158.186 26.4764H156.293V26.476ZM190.143 34.9898C188.296 34.9898 186.679 34.0131 185.987 33.4077C185.755 33.641 185.34 34.3383 185.248 34.9898H184.37V28.5699H185.293C185.663 31.6408 187.787 33.455 190.512 33.455C191.99 33.455 193.191 32.6175 193.191 31.2219C193.191 30.0127 192.128 29.0821 190.235 28.198L187.603 26.942C185.755 26.0571 184.37 24.5219 184.37 22.4754C184.37 20.2422 186.448 18.3351 189.311 18.3351C190.835 18.3351 192.128 18.8938 192.914 19.545C193.144 19.3584 193.375 18.8466 193.514 18.2881H194.391V23.7783H193.421C193.098 21.5915 191.897 19.7772 189.45 19.7772C188.157 19.7772 186.956 20.5215 186.956 21.6852C186.956 22.8946 187.926 23.5456 190.143 24.5691L192.682 25.8253C194.899 26.8955 195.776 28.6173 195.776 30.0131C195.777 32.9433 193.237 34.9898 190.143 34.9898ZM204.367 34.9898C202.519 34.9898 200.902 34.0131 200.21 33.4077C199.979 33.641 199.564 34.3383 199.471 34.9898H198.594V28.5699H199.517C199.887 31.6408 202.011 33.455 204.736 33.455C206.213 33.455 207.414 32.6175 207.414 31.2219C207.414 30.0127 206.352 29.0821 204.459 28.198L201.826 26.942C199.979 26.0571 198.593 24.5219 198.593 22.4754C198.593 20.2422 200.671 18.3351 203.535 18.3351C205.059 18.3351 206.351 18.8938 207.137 19.545C207.368 19.3584 207.599 18.8466 207.736 18.2881H208.614V23.7783H207.645C207.321 21.5915 206.121 19.7772 203.674 19.7772C202.381 19.7772 201.179 20.5215 201.179 21.6852C201.179 22.8946 202.149 23.5456 204.366 24.5691L206.906 25.8253C209.123 26.8955 210 28.6173 210 30.0131C210 32.9433 207.46 34.9898 204.367 34.9898ZM3.38646 23.9994C3.38646 32.1487 8.08773 39.1912 14.905 42.5291L5.15592 15.6205C4.02171 18.1811 3.38646 21.0148 3.38646 23.9994ZM37.6211 22.9604C37.6211 20.4159 36.7139 18.6537 35.9356 17.2822C34.8997 15.586 33.9284 14.15 33.9284 12.454C33.9284 10.5615 35.3535 8.79987 37.3603 8.79987C37.4508 8.79987 37.5369 8.8113 37.6251 8.81616C33.9889 5.46076 29.1446 3.41147 23.8239 3.41147C16.6837 3.41147 10.4019 7.10176 6.74772 12.6918C7.22715 12.7064 7.67928 12.7163 8.06295 12.7163C10.2008 12.7163 13.5099 12.455 13.5099 12.455C14.6116 12.3897 14.7416 14.0199 13.641 14.1513C13.641 14.1513 12.5339 14.2824 11.3018 14.3476L18.7446 36.648L23.2172 23.1354L20.0329 14.3463C18.9323 14.2812 17.8897 14.15 17.8897 14.15C16.7882 14.0848 16.9174 12.3886 18.0188 12.4538C18.0188 12.4538 21.3942 12.715 23.4022 12.715C25.5396 12.715 28.8492 12.4538 28.8492 12.4538C29.9517 12.3884 30.0812 14.0184 28.9802 14.15C28.9802 14.15 27.8708 14.2812 26.641 14.3463L34.0269 36.4785L36.0654 29.6162C36.9487 26.7684 37.6211 24.7231 37.6211 22.9604ZM24.1828 25.8005L18.0508 43.7506C19.8818 44.2928 21.818 44.5896 23.8243 44.5896C26.2042 44.5896 28.4865 44.175 30.6111 43.422C30.5563 43.334 30.5063 43.2407 30.4655 43.1386L24.1828 25.8005ZM41.7572 14.1214C41.8452 14.7774 41.895 15.4817 41.895 16.2386C41.895 18.3279 41.5076 20.6768 40.341 23.6133L34.0983 41.7961C40.1743 38.2266 44.2611 31.5953 44.2611 23.9996C44.2615 20.4201 43.3537 17.0542 41.7572 14.1214ZM23.8243 0C10.688 0 0 10.7664 0 23.9994C0 37.2342 10.688 48 23.8243 48C36.96 48 47.6494 37.234 47.6494 23.9994C47.649 10.7664 36.96 0 23.8243 0ZM23.8243 46.8995C11.2902 46.8995 1.09242 36.6262 1.09242 23.9992C1.09242 11.3725 11.29 1.1007 23.8243 1.1007C36.3577 1.1007 46.5547 11.373 46.5547 23.9992C46.5545 36.6266 36.3577 46.8995 23.8243 46.8995Z" fill="white"/>
</g>
<defs>
<clipPath id="clip0_66_1716">
<rect width="210" height="48" fill="white"/>
</clipPath>
</defs>
</svg>
